<mxfile host="app.diagrams.net" agent="Mozilla/5.0 (Windows NT 10.0; Win64; x64) AppleWebKit/537.36 (KHTML, like Gecko) Chrome/138.0.0.0 Safari/537.36" version="28.0.7">
  <diagram id="C5RBs43oDa-KdzZeNtuy" name="Page-1">
    <mxGraphModel dx="1042" dy="562" grid="1" gridSize="10" guides="1" tooltips="1" connect="1" arrows="1" fold="1" page="1" pageScale="1" pageWidth="827" pageHeight="1169" math="0" shadow="0">
      <root>
        <mxCell id="WIyWlLk6GJQsqaUBKTNV-0" />
        <mxCell id="WIyWlLk6GJQsqaUBKTNV-1" parent="WIyWlLk6GJQsqaUBKTNV-0" />
        <mxCell id="gWDxXA7ypujzyn__S4T2-0" value="" style="shape=internalStorage;whiteSpace=wrap;html=1;backgroundOutline=1;fontFamily=Times New Roman;" vertex="1" parent="WIyWlLk6GJQsqaUBKTNV-1">
          <mxGeometry x="100" y="150" width="610" height="740" as="geometry" />
        </mxCell>
        <mxCell id="gWDxXA7ypujzyn__S4T2-1" value="Guru" style="swimlane;whiteSpace=wrap;html=1;fontFamily=Times New Roman;" vertex="1" parent="WIyWlLk6GJQsqaUBKTNV-1">
          <mxGeometry x="120" y="170" width="190" height="720" as="geometry" />
        </mxCell>
        <mxCell id="gWDxXA7ypujzyn__S4T2-4" value="Admin" style="swimlane;whiteSpace=wrap;html=1;fontFamily=Times New Roman;" vertex="1" parent="WIyWlLk6GJQsqaUBKTNV-1">
          <mxGeometry x="310" y="170" width="240" height="720" as="geometry" />
        </mxCell>
        <mxCell id="gWDxXA7ypujzyn__S4T2-17" value="Guru BK" style="swimlane;whiteSpace=wrap;html=1;fontFamily=Times New Roman;startSize=23;" vertex="1" parent="WIyWlLk6GJQsqaUBKTNV-1">
          <mxGeometry x="550" y="170" width="160" height="720" as="geometry" />
        </mxCell>
        <mxCell id="gWDxXA7ypujzyn__S4T2-20" value="&lt;b&gt;&lt;font face=&quot;Times New Roman&quot;&gt;Flow Of System Penentuan Siswa Bermasalah&lt;/font&gt;&lt;/b&gt;" style="text;html=1;align=center;verticalAlign=middle;whiteSpace=wrap;rounded=0;" vertex="1" parent="WIyWlLk6GJQsqaUBKTNV-1">
          <mxGeometry x="120" y="150" width="650" height="20" as="geometry" />
        </mxCell>
        <mxCell id="gWDxXA7ypujzyn__S4T2-2" value="Catatan pelanggaran" style="strokeWidth=1;html=1;shape=mxgraph.flowchart.multi-document;whiteSpace=wrap;fontFamily=Times New Roman;fontSize=10;spacing=1;" vertex="1" parent="WIyWlLk6GJQsqaUBKTNV-1">
          <mxGeometry x="185.5" y="1050" width="79" height="50" as="geometry" />
        </mxCell>
        <mxCell id="gWDxXA7ypujzyn__S4T2-3" value="Ditangani&lt;div&gt;Guru/Wali Kelas&lt;/div&gt;" style="shape=parallelogram;perimeter=parallelogramPerimeter;whiteSpace=wrap;html=1;fixedSize=1;fontSize=10;fontFamily=Times New Roman;" vertex="1" parent="WIyWlLk6GJQsqaUBKTNV-1">
          <mxGeometry x="180" y="1320" width="90" height="40" as="geometry" />
        </mxCell>
        <mxCell id="gWDxXA7ypujzyn__S4T2-5" value="Catatan pelanggaran" style="strokeWidth=1;html=1;shape=mxgraph.flowchart.multi-document;whiteSpace=wrap;fontFamily=Times New Roman;fontSize=10;spacing=1;" vertex="1" parent="WIyWlLk6GJQsqaUBKTNV-1">
          <mxGeometry x="321.5" y="1050" width="79" height="50" as="geometry" />
        </mxCell>
        <mxCell id="gWDxXA7ypujzyn__S4T2-6" value="Form Ceklis" style="strokeWidth=1;html=1;shape=mxgraph.flowchart.document2;whiteSpace=wrap;size=0.25;fontFamily=Times New Roman;fontSize=10;spacing=1;" vertex="1" parent="WIyWlLk6GJQsqaUBKTNV-1">
          <mxGeometry x="325.5" y="1140" width="70" height="50" as="geometry" />
        </mxCell>
        <mxCell id="gWDxXA7ypujzyn__S4T2-7" style="edgeStyle=orthogonalEdgeStyle;rounded=0;orthogonalLoop=1;jettySize=auto;html=1;fontFamily=Times New Roman;fontSize=10;" edge="1" parent="WIyWlLk6GJQsqaUBKTNV-1" source="gWDxXA7ypujzyn__S4T2-8" target="gWDxXA7ypujzyn__S4T2-11">
          <mxGeometry relative="1" as="geometry" />
        </mxCell>
        <mxCell id="gWDxXA7ypujzyn__S4T2-8" value="Hasil Observasi&amp;nbsp;" style="strokeWidth=1;html=1;shape=mxgraph.flowchart.document2;whiteSpace=wrap;size=0.25;fontFamily=Times New Roman;fontSize=10;spacing=1;" vertex="1" parent="WIyWlLk6GJQsqaUBKTNV-1">
          <mxGeometry x="324.5" y="1230" width="70" height="50" as="geometry" />
        </mxCell>
        <mxCell id="gWDxXA7ypujzyn__S4T2-9" style="edgeStyle=orthogonalEdgeStyle;rounded=0;orthogonalLoop=1;jettySize=auto;html=1;exitX=0.5;exitY=1;exitDx=0;exitDy=0;exitPerimeter=0;entryX=0;entryY=0.5;entryDx=0;entryDy=0;fontFamily=Times New Roman;fontSize=10;" edge="1" parent="WIyWlLk6GJQsqaUBKTNV-1" source="gWDxXA7ypujzyn__S4T2-11" target="gWDxXA7ypujzyn__S4T2-15">
          <mxGeometry relative="1" as="geometry">
            <Array as="points">
              <mxPoint x="314.5" y="1375" />
              <mxPoint x="314.5" y="1485" />
            </Array>
          </mxGeometry>
        </mxCell>
        <mxCell id="gWDxXA7ypujzyn__S4T2-10" value="Berat" style="edgeLabel;html=1;align=center;verticalAlign=middle;resizable=0;points=[];" vertex="1" connectable="0" parent="gWDxXA7ypujzyn__S4T2-9">
          <mxGeometry x="-0.16" y="1" relative="1" as="geometry">
            <mxPoint as="offset" />
          </mxGeometry>
        </mxCell>
        <mxCell id="gWDxXA7ypujzyn__S4T2-11" value="Klasifikasi&lt;div&gt;Masalah&lt;/div&gt;" style="strokeWidth=1;html=1;shape=mxgraph.flowchart.decision;whiteSpace=wrap;fontFamily=Times New Roman;fontSize=10;spacing=1;" vertex="1" parent="WIyWlLk6GJQsqaUBKTNV-1">
          <mxGeometry x="322" y="1305" width="75" height="70" as="geometry" />
        </mxCell>
        <mxCell id="gWDxXA7ypujzyn__S4T2-12" value="" style="endArrow=classic;html=1;rounded=0;exitX=0.5;exitY=0.88;exitDx=0;exitDy=0;exitPerimeter=0;entryX=0.5;entryY=0;entryDx=0;entryDy=0;entryPerimeter=0;fontSize=10;fontFamily=Times New Roman;spacing=1;strokeWidth=1;" edge="1" parent="WIyWlLk6GJQsqaUBKTNV-1" source="gWDxXA7ypujzyn__S4T2-5" target="gWDxXA7ypujzyn__S4T2-6">
          <mxGeometry width="50" height="50" relative="1" as="geometry">
            <mxPoint x="274.5" y="1085" as="sourcePoint" />
            <mxPoint x="334.5" y="1085" as="targetPoint" />
          </mxGeometry>
        </mxCell>
        <mxCell id="gWDxXA7ypujzyn__S4T2-13" value="" style="endArrow=classic;html=1;rounded=0;entryX=0;entryY=0.5;entryDx=0;entryDy=0;fontSize=10;fontFamily=Times New Roman;spacing=1;strokeWidth=1;" edge="1" parent="WIyWlLk6GJQsqaUBKTNV-1" target="gWDxXA7ypujzyn__S4T2-18">
          <mxGeometry width="50" height="50" relative="1" as="geometry">
            <mxPoint x="394.5" y="1160" as="sourcePoint" />
            <mxPoint x="444.5" y="1110" as="targetPoint" />
          </mxGeometry>
        </mxCell>
        <mxCell id="gWDxXA7ypujzyn__S4T2-14" value="" style="edgeStyle=orthogonalEdgeStyle;rounded=0;orthogonalLoop=1;jettySize=auto;html=1;fontFamily=Times New Roman;fontSize=10;" edge="1" parent="WIyWlLk6GJQsqaUBKTNV-1" source="gWDxXA7ypujzyn__S4T2-15">
          <mxGeometry relative="1" as="geometry">
            <mxPoint x="364.5" y="1550" as="targetPoint" />
          </mxGeometry>
        </mxCell>
        <mxCell id="gWDxXA7ypujzyn__S4T2-15" value="Minta Bantuan&lt;div&gt;Orangtua&lt;/div&gt;" style="shape=parallelogram;perimeter=parallelogramPerimeter;whiteSpace=wrap;html=1;fixedSize=1;fontSize=10;fontFamily=Times New Roman;" vertex="1" parent="WIyWlLk6GJQsqaUBKTNV-1">
          <mxGeometry x="319.5" y="1465" width="90" height="40" as="geometry" />
        </mxCell>
        <mxCell id="gWDxXA7ypujzyn__S4T2-16" value="Surat Penggilan&lt;div&gt;dan Laporan&lt;/div&gt;" style="strokeWidth=1;html=1;shape=mxgraph.flowchart.multi-document;whiteSpace=wrap;fontFamily=Times New Roman;fontSize=10;spacing=1;" vertex="1" parent="WIyWlLk6GJQsqaUBKTNV-1">
          <mxGeometry x="325" y="1550" width="79" height="50" as="geometry" />
        </mxCell>
        <mxCell id="gWDxXA7ypujzyn__S4T2-18" value="Wawancara" style="verticalLabelPosition=middle;verticalAlign=middle;html=1;shape=trapezoid;perimeter=trapezoidPerimeter;whiteSpace=wrap;size=0.23;arcSize=10;flipV=1;labelPosition=center;align=center;fontFamily=Times New Roman;fontSize=10;spacing=1;strokeWidth=1;" vertex="1" parent="WIyWlLk6GJQsqaUBKTNV-1">
          <mxGeometry x="452" y="1132" width="95" height="55" as="geometry" />
        </mxCell>
        <mxCell id="gWDxXA7ypujzyn__S4T2-22" value="M" style="strokeWidth=1;html=1;shape=mxgraph.flowchart.merge_or_storage;whiteSpace=wrap;fontFamily=Times New Roman;fontSize=10;spacing=1;" vertex="1" parent="WIyWlLk6GJQsqaUBKTNV-1">
          <mxGeometry x="715.5" y="1684" width="40" height="20" as="geometry" />
        </mxCell>
        <mxCell id="gWDxXA7ypujzyn__S4T2-23" value="" style="endArrow=classic;html=1;rounded=0;exitX=1;exitY=0.5;exitDx=0;exitDy=0;exitPerimeter=0;entryX=0;entryY=0.5;entryDx=0;entryDy=0;entryPerimeter=0;fontSize=10;fontFamily=Times New Roman;spacing=1;strokeWidth=1;" edge="1" parent="WIyWlLk6GJQsqaUBKTNV-1" source="gWDxXA7ypujzyn__S4T2-2" target="gWDxXA7ypujzyn__S4T2-5">
          <mxGeometry width="50" height="50" relative="1" as="geometry">
            <mxPoint x="424.5" y="1270" as="sourcePoint" />
            <mxPoint x="474.5" y="1220" as="targetPoint" />
          </mxGeometry>
        </mxCell>
        <mxCell id="gWDxXA7ypujzyn__S4T2-24" value="" style="edgeStyle=segmentEdgeStyle;endArrow=classic;html=1;curved=0;rounded=0;endSize=8;startSize=8;entryX=1;entryY=0.5;entryDx=0;entryDy=0;entryPerimeter=0;exitX=0.5;exitY=1;exitDx=0;exitDy=0;fontSize=10;fontFamily=Times New Roman;spacing=1;strokeWidth=1;" edge="1" parent="WIyWlLk6GJQsqaUBKTNV-1" source="gWDxXA7ypujzyn__S4T2-18" target="gWDxXA7ypujzyn__S4T2-8">
          <mxGeometry width="50" height="50" relative="1" as="geometry">
            <mxPoint x="424.5" y="1270" as="sourcePoint" />
            <mxPoint x="474.5" y="1220" as="targetPoint" />
            <Array as="points">
              <mxPoint x="489.5" y="1255" />
            </Array>
          </mxGeometry>
        </mxCell>
        <mxCell id="gWDxXA7ypujzyn__S4T2-25" value="Surat Panggilan" style="strokeWidth=1;html=1;shape=mxgraph.flowchart.document2;whiteSpace=wrap;size=0.25;fontFamily=Times New Roman;fontSize=10;spacing=1;" vertex="1" parent="WIyWlLk6GJQsqaUBKTNV-1">
          <mxGeometry x="594.5" y="1420" width="70" height="50" as="geometry" />
        </mxCell>
        <mxCell id="gWDxXA7ypujzyn__S4T2-26" value="Ditangani&lt;div&gt;Guru BK&lt;/div&gt;" style="shape=parallelogram;perimeter=parallelogramPerimeter;whiteSpace=wrap;html=1;fixedSize=1;fontSize=10;fontFamily=Times New Roman;" vertex="1" parent="WIyWlLk6GJQsqaUBKTNV-1">
          <mxGeometry x="324.5" y="1405" width="90" height="40" as="geometry" />
        </mxCell>
        <mxCell id="gWDxXA7ypujzyn__S4T2-27" style="edgeStyle=orthogonalEdgeStyle;rounded=0;orthogonalLoop=1;jettySize=auto;html=1;entryX=1;entryY=0.5;entryDx=0;entryDy=0;fontFamily=Times New Roman;fontSize=10;" edge="1" parent="WIyWlLk6GJQsqaUBKTNV-1" source="gWDxXA7ypujzyn__S4T2-11" target="gWDxXA7ypujzyn__S4T2-3">
          <mxGeometry relative="1" as="geometry" />
        </mxCell>
        <mxCell id="gWDxXA7ypujzyn__S4T2-28" value="Ringan" style="edgeLabel;html=1;align=center;verticalAlign=middle;resizable=0;points=[];fontFamily=Times New Roman;fontSize=10;" vertex="1" connectable="0" parent="gWDxXA7ypujzyn__S4T2-27">
          <mxGeometry x="-0.5258" y="2" relative="1" as="geometry">
            <mxPoint as="offset" />
          </mxGeometry>
        </mxCell>
        <mxCell id="gWDxXA7ypujzyn__S4T2-29" style="edgeStyle=orthogonalEdgeStyle;rounded=0;orthogonalLoop=1;jettySize=auto;html=1;exitX=1;exitY=0.5;exitDx=0;exitDy=0;exitPerimeter=0;entryX=1;entryY=0.5;entryDx=0;entryDy=0;fontFamily=Times New Roman;fontSize=10;" edge="1" parent="WIyWlLk6GJQsqaUBKTNV-1" source="gWDxXA7ypujzyn__S4T2-11" target="gWDxXA7ypujzyn__S4T2-26">
          <mxGeometry relative="1" as="geometry">
            <Array as="points">
              <mxPoint x="424.5" y="1340" />
              <mxPoint x="424.5" y="1425" />
            </Array>
          </mxGeometry>
        </mxCell>
        <mxCell id="gWDxXA7ypujzyn__S4T2-30" value="Sedang" style="edgeLabel;html=1;align=center;verticalAlign=middle;resizable=0;points=[];" vertex="1" connectable="0" parent="gWDxXA7ypujzyn__S4T2-29">
          <mxGeometry x="-0.2619" relative="1" as="geometry">
            <mxPoint as="offset" />
          </mxGeometry>
        </mxCell>
        <mxCell id="gWDxXA7ypujzyn__S4T2-31" style="edgeStyle=orthogonalEdgeStyle;rounded=0;orthogonalLoop=1;jettySize=auto;html=1;entryX=0;entryY=0.5;entryDx=0;entryDy=0;entryPerimeter=0;fontFamily=Times New Roman;fontSize=10;" edge="1" parent="WIyWlLk6GJQsqaUBKTNV-1" target="gWDxXA7ypujzyn__S4T2-25">
          <mxGeometry relative="1" as="geometry">
            <mxPoint x="399.5" y="1575" as="sourcePoint" />
          </mxGeometry>
        </mxCell>
        <mxCell id="gWDxXA7ypujzyn__S4T2-32" value="&lt;div&gt;Laporan Data&amp;nbsp;&lt;/div&gt;&lt;div&gt;Siswa Bermasalah&lt;/div&gt;" style="strokeWidth=1;html=1;shape=mxgraph.flowchart.multi-document;whiteSpace=wrap;fontFamily=Times New Roman;fontSize=10;spacing=1;" vertex="1" parent="WIyWlLk6GJQsqaUBKTNV-1">
          <mxGeometry x="696" y="1594" width="79" height="50" as="geometry" />
        </mxCell>
        <mxCell id="gWDxXA7ypujzyn__S4T2-33" style="edgeStyle=orthogonalEdgeStyle;rounded=0;orthogonalLoop=1;jettySize=auto;html=1;entryX=0;entryY=0.5;entryDx=0;entryDy=0;entryPerimeter=0;" edge="1" parent="WIyWlLk6GJQsqaUBKTNV-1" source="gWDxXA7ypujzyn__S4T2-16" target="gWDxXA7ypujzyn__S4T2-32">
          <mxGeometry relative="1" as="geometry">
            <Array as="points">
              <mxPoint x="364.5" y="1619" />
            </Array>
          </mxGeometry>
        </mxCell>
        <mxCell id="gWDxXA7ypujzyn__S4T2-34" style="edgeStyle=orthogonalEdgeStyle;rounded=0;orthogonalLoop=1;jettySize=auto;html=1;entryX=0.5;entryY=0;entryDx=0;entryDy=0;entryPerimeter=0;" edge="1" parent="WIyWlLk6GJQsqaUBKTNV-1" source="gWDxXA7ypujzyn__S4T2-32" target="gWDxXA7ypujzyn__S4T2-22">
          <mxGeometry relative="1" as="geometry" />
        </mxCell>
      </root>
    </mxGraphModel>
  </diagram>
</mxfile>
